<svg xmlns="http://www.w3.org/2000/svg" width="134.4" height="132.16" viewBox="0 0 134.4 132.16">
  <defs>
    <style>
      .a {
        fill: #eb2256;
      }
    </style>
  </defs>
  <title>CLI</title>
  <path class="a" d="M127.68,58.24h-2.24v-56A2.24,2.24,0,0,0,123.2,0H13.44A13.46,13.46,0,0,0,0,13.44V118.72a13.46,13.46,0,0,0,13.44,13.44H123.2a2.24,2.24,0,0,0,2.24-2.24h0V98.56h2.24a6.72,6.72,0,0,0,6.72-6.72h0V65a6.73,6.73,0,0,0-6.72-6.72M13.44,4.48H121V22.4H13.44a9,9,0,1,1-1.7-17.92,9.65,9.65,0,0,1,1.7,0M69.44,65a2.24,2.24,0,1,1-2.24-2.24h0A2.26,2.26,0,0,1,69.44,65m6.76,40.32A2.24,2.24,0,1,1,78.4,103v.08a2.23,2.23,0,0,1-2.2,2.2m44.8,22.4h-9v-11.2a6.73,6.73,0,0,0-6.72-6.72h-4.89a6.72,6.72,0,1,0,0,4.48h4.89a2.24,2.24,0,0,1,2.24,2.24v11.2H78.4V109.35a6.72,6.72,0,1,0-4.48,0v18.33H51.52V89.6a2.26,2.26,0,0,1,2.24-2.24h7.13a6.72,6.72,0,1,0,0-4.48H53.76A6.73,6.73,0,0,0,47,89.6v38.08H13.44a9,9,0,0,1-9-9h0v-2.2h25a6.72,6.72,0,1,0,0-4.48h-25V98.56h22.4a6.73,6.73,0,0,0,6.72-6.72V84.71a6.72,6.72,0,1,0-4.48,0v7.13a2.24,2.24,0,0,1-2.2,2.24H4.48V58.24H16.09a6.72,6.72,0,1,0,0-4.48H4.48V40.32h33.6a6.73,6.73,0,0,1,6.72,6.74V58.65a6.72,6.72,0,1,0,4.48,0V47.08a11.22,11.22,0,0,0-11.2-11.2H4.48V23.45l.12.09a13.55,13.55,0,0,0,1.68,1.25l.28.17a12.48,12.48,0,0,0,1.9.95l.28.1a12.2,12.2,0,0,0,2.12.61h.2a13.52,13.52,0,0,0,2.38.23H65v31.8a6.72,6.72,0,1,0,4.48,0V26.88H121v4.48H98.56a11.22,11.22,0,0,0-11.2,11.2v2.65a6.72,6.72,0,1,0,4.48,0V42.56a6.72,6.72,0,0,1,6.72-6.72H121v22.4H105.28a20.16,20.16,0,0,0-18.86,13.1l-.06.18c-.17.47-.33,1-.47,1.44-.07.24-.13.48-.19.72s-.16.7-.23,1.06-.11.68-.16,1-.07.6-.1.91v2.08a7.14,7.14,0,0,0,.06,1.13c.06.38,0,.59.08.88s.11.83.18,1.24a3.57,3.57,0,0,0,.14.71c.1.45.22.9.35,1.35l.15.52c.16.48.33,1,.52,1.41l.18.42c.2.47.42.92.66,1.37l.22.41c.24.43.49.84.76,1.25.1.16.21.31.32.47.26.37.53.74.82,1.1l.44.51c.19.22.35.44.55.66a3.49,3.49,0,0,0,.33.31l.5.48c.3.29.61.59.94.86l.64.5c.3.23.59.46.9.67s.65.42,1,.62.44.28.67.41c.5.27,1,.52,1.55.76l.21.11a20.21,20.21,0,0,0,8,1.65h15.68ZM96.36,112a2.24,2.24,0,1,1-2.24-2.24h0A2.24,2.24,0,0,1,96.36,112M65,85.08a2.24,2.24,0,1,1,2.24,2.28A2.24,2.24,0,0,1,65,85.08v0M33.6,114.24a2.24,2.24,0,1,1,2.24,2.24h0a2.24,2.24,0,0,1-2.24-2.24M29.12,78.4a2.24,2.24,0,1,1,2.24,2.24h0a2.26,2.26,0,0,1-2.24-2.24m-9-22.4a2.24,2.24,0,1,1,2.24,2.24h0A2.23,2.23,0,0,1,20.2,56m26.88,6.72A2.24,2.24,0,1,1,44.84,65h0a2.24,2.24,0,0,1,2.24-2.24m44.8-11.2a2.24,2.24,0,1,1-2.28-2.24,2.24,2.24,0,0,1,2.28,2.24m38.08,40.32a2.24,2.24,0,0,1-2.24,2.24h-22.4a15.58,15.58,0,0,1-9.8-3.46l-.21-.17c-.29-.23-.55-.48-.81-.73s-.25-.23-.37-.36l-.67-.74c-.22-.25-.24-.27-.35-.41s-.43-.56-.63-.85L92.2,87c-.2-.32-.4-.64-.58-1a2.68,2.68,0,0,1-.18-.33c-.19-.34-.35-.69-.51-1l-.15-.34c-.14-.36-.27-.71-.39-1.08l-.19-.45c-.1-.34-.19-.68-.26-1a5.4,5.4,0,0,1-.11-.58c-.06-.31-.11-.61-.15-.93l-.06-.72V77.09a2.13,2.13,0,0,1,.08-.72,6.51,6.51,0,0,0,.13-.79c0-.26.12-.58.19-.87l.12-.49a16.24,16.24,0,0,1,15.76-11.5h21.78A2.24,2.24,0,0,1,129.92,65h0Z"/>
  <path class="a" d="M108,69.68a9.6,9.6,0,1,0,9.6,9.6h0a9.62,9.62,0,0,0-9.6-9.6m0,14.4a4.8,4.8,0,1,1,4.8-4.8,4.8,4.8,0,0,1-4.8,4.8h0"/>
</svg>
