<?xml version="1.0" encoding="utf-8"?>
<!-- Generator: Adobe Illustrator 22.0.1, SVG Export Plug-In . SVG Version: 6.00 Build 0)  -->
<svg version="1.1" id="Layer_1" xmlns="http://www.w3.org/2000/svg" xmlns:xlink="http://www.w3.org/1999/xlink" x="0px" y="0px"
	 viewBox="0 0 128 128" style="enable-background:new 0 0 128 128;" xml:space="preserve">
<style type="text/css">
	.st0{fill:#FFFFFF;}
</style>
<g>
	<g>
		<path class="st0" d="M54.8,55.9c-2.9,0-5.7-1.7-6.9-4.3c-2-3.8-0.4-8.5,3.5-10.6c1.1-0.6,2.3-0.9,3.5-0.9c2.9,0,5.7,1.7,6.9,4.3
			c2,3.8,0.4,8.5-3.4,10.6C57.1,55.6,56,55.9,54.8,55.9 M45.7,71.8c-0.2,0-0.3,0-0.5,0c-4.3-0.3-7.5-4-7.2-8.3
			c0.2-4.3,3.9-7.5,8.2-7.3s7.5,3.9,7.2,8.3C53.3,68.6,49.9,71.8,45.7,71.8 M54.9,87.8c-1.6,0-3-0.5-4.3-1.3c-1.8-1.2-2.9-2.9-3.3-5
			c-0.4-2.1,0-4.1,1.1-5.9c1.5-2.3,3.9-3.5,6.6-3.5c1.6,0,3,0.5,4.3,1.3c1.8,1.2,2.9,2.9,3.4,5c0.4,2.1,0,4.1-1.1,5.9
			C59.9,86.5,57.4,87.8,54.9,87.8 M73.2,87.8c-2.9,0-5.7-1.7-6.9-4.3c-1-1.9-1.1-4-0.5-6c0.7-2,2.1-3.6,3.9-4.5
			c1.1-0.6,2.3-0.9,3.5-0.9c2.9,0,5.7,1.7,6.9,4.3c2,3.8,0.4,8.5-3.5,10.6C75.5,87.5,74.2,87.8,73.2,87.8 M82.3,71.7
			c-0.2,0-0.3,0-0.5,0c-4.3-0.2-7.5-3.9-7.2-8.3c0.3-4.3,3.9-7.6,8.2-7.4c2.1,0.1,4,1.1,5.4,2.6c1.4,1.6,2.1,3.6,2,5.7
			C89.8,68.6,86.3,71.7,82.3,71.7 M73.1,55.8c-1.6,0-3-0.5-4.3-1.3c-3.6-2.4-4.6-7.3-2.3-10.9c1.5-2.3,3.9-3.5,6.6-3.5
			c1.6,0,3,0.5,4.3,1.3c3.6,2.4,4.6,7.3,2.2,10.9C78.1,54.4,75.6,55.8,73.1,55.8 M47,26.7c1,2,0.2,4.3-1.8,5.3s-4.3,0.2-5.3-1.8
			s-0.1-4.3,1.9-5.3C43.7,23.9,46.1,24.6,47,26.7 M23.6,60.1c2.2,0.1,3.8,2,3.7,4.1s-2,3.8-4.1,3.7c-2.2-0.1-3.8-2-3.7-4.1
			C19.6,61.7,21.4,60,23.6,60.1 M40.5,97.5c1.2-1.8,3.6-2.4,5.4-1.1c1.9,1.2,2.3,3.6,1.2,5.4c-1.2,1.8-3.6,2.4-5.4,1.2
			C39.8,101.7,39.3,99.3,40.5,97.5 M80.9,101.2c-1-2-0.2-4.3,1.8-5.3s4.3-0.2,5.3,1.8s0.2,4.3-1.8,5.3
			C84.1,104,81.9,103.3,80.9,101.2 M104.4,67.8c-2.2-0.1-3.8-2-3.7-4.1c0.1-2.2,2-3.8,4.1-3.7c2.2,0.1,3.8,2,3.7,4.1
			C108.4,66.2,106.5,67.9,104.4,67.8 M87.5,30.4c-1.2,1.9-3.6,2.4-5.4,1.2c-1.9-1.2-2.3-3.6-1.2-5.4c1.2-1.9,3.6-2.4,5.4-1.2
			S88.6,28.6,87.5,30.4 M38.5,14.5c0.6,1.3,0.1,2.7-1.1,3.4c-1.3,0.6-2.6,0.1-3.3-1.1c-0.6-1.3-0.1-2.7,1.1-3.4
			C36.4,12.9,38,13.2,38.5,14.5 M9.1,61.6c1.4,0.1,2.4,1.3,2.3,2.6c-0.1,1.4-1.3,2.4-2.6,2.4c-1.4-0.2-2.4-1.4-2.3-2.6
			C6.5,62.5,7.7,61.6,9.1,61.6 M34.5,110.8c0.8-1.2,2.3-1.5,3.5-0.7s1.5,2.4,0.7,3.5s-2.3,1.5-3.5,0.7C34,113.7,33.7,112,34.5,110.8
			 M89.4,113.4c-0.6-1.3-0.1-2.7,1.1-3.4c1.3-0.6,2.7-0.1,3.4,1.1c0.6,1.3,0.1,2.7-1.1,3.4C91.6,115,90,114.7,89.4,113.4
			 M118.9,66.4c-1.4-0.1-2.4-1.3-2.3-2.6c0.1-1.4,1.3-2.4,2.6-2.4c1.4,0.1,2.4,1.3,2.3,2.6C121.4,65.3,120.2,66.4,118.9,66.4
			 M93.4,17.1c-0.8,1.2-2.3,1.5-3.5,0.7s-1.5-2.4-0.7-3.5s2.3-1.5,3.5-0.7C93.9,14.2,94.2,15.9,93.4,17.1 M39.3,44.4
			c2.2,1.4,2.7,4.2,1.4,6.4c-1.4,2.2-4.2,2.7-6.4,1.4s-2.7-4.2-1.4-6.4C34.4,43.4,37.3,42.8,39.3,44.4 M34.9,75.7
			c2.3-1.2,5.1-0.2,6.2,2.1c1.2,2.3,0.2,5.1-2.1,6.2c-2.3,1.2-5.1,0.2-6.2-2.1C31.7,79.7,32.7,76.8,34.9,75.7 M59.1,95.4
			c0.1-2.5,2.3-4.5,4.9-4.3c2.5,0.1,4.5,2.4,4.3,4.9c-0.1,2.5-2.3,4.5-4.9,4.3C60.9,100.1,59,98,59.1,95.4 M88.6,83.6
			c-2.2-1.4-2.7-4.2-1.4-6.4c1.4-2.2,4.2-2.7,6.4-1.4c2.2,1.4,2.7,4.2,1.4,6.4C93.5,84.5,90.7,85.1,88.6,83.6 M93,52.2
			c-2.3,1.2-5.1,0.2-6.2-2.1c-1.2-2.3-0.2-5.1,2.1-6.2c2.3-1.2,5.1-0.2,6.2,2.1C96.3,48.2,95.3,51.1,93,52.2 M68.5,32.6
			c-0.1,2.5-2.4,4.4-4.9,4.2c-2.5-0.1-4.5-2.4-4.3-4.9c0.1-2.5,2.3-4.5,4.9-4.3C66.7,27.8,68.7,30,68.5,32.6 M22.4,36
			c1.5,1,1.9,2.9,0.9,4.5c-1,1.5-2.9,2-4.5,0.9c-1.5-1-1.9-2.9-0.9-4.5C18.9,35.5,20.9,35.1,22.4,36 M19.3,86.5
			c1.6-0.8,3.5-0.2,4.3,1.5c0.8,1.6,0.2,3.5-1.5,4.3c-1.6,0.8-3.5,0.2-4.3-1.5C17,89.2,17.7,87.2,19.3,86.5 M60.5,114.5
			c0.1-1.8,1.7-3.1,3.4-3c1.7,0.1,3.1,1.7,3,3.4s-1.7,3.1-3.4,3C61.8,117.8,60.4,116.1,60.5,114.5 M105.5,91.9
			c-1.5-1-1.9-2.9-0.9-4.5c1-1.5,2.9-2,4.5-1c1.5,1,1.9,2.9,0.9,4.5C109.1,92.4,107,92.8,105.5,91.9 M108.7,41.5
			c-1.6,0.8-3.5,0.2-4.3-1.5c-0.8-1.6-0.2-3.5,1.5-4.3c1.6-0.8,3.5-0.2,4.3,1.5C110.8,38.7,110.2,40.7,108.7,41.5 M67.1,13.4
			c-0.1,1.8-1.7,3.1-3.4,3c-1.8-0.1-3.1-1.7-3-3.4c0-1.8,1.6-3,3.4-2.9C65.8,10.2,67.2,11.8,67.1,13.4"/>
	</g>
</g>
</svg>
