<?xml version="1.0" encoding="utf-8"?>
<!-- Generator: Adobe Illustrator 22.0.1, SVG Export Plug-In . SVG Version: 6.00 Build 0)  -->
<svg version="1.1" id="Layer_1" xmlns="http://www.w3.org/2000/svg" xmlns:xlink="http://www.w3.org/1999/xlink" x="0px" y="0px"
	 viewBox="0 0 87 68" style="enable-background:new 0 0 87 68;" xml:space="preserve">
<style type="text/css">
	.st0{fill:#82FF65;}
</style>
<g id="Page-1_6_">
	<g id="full_6_">
		<path id="Combined-Shape_6_" class="st0" d="M38.1,63.1l-4.6-0.7l-2.4-6.8l1.7-0.2l1.9,5.4l3.4,0.6c0.1-0.6,0.4-1.2,0.7-1.7
			c0.5-0.8,1.2-1.4,2-1.8v-1.5c-3.5-0.7-6.6-2.5-8.9-5c-0.3-0.4-0.6-0.7-0.9-1.1l1.5-0.8c0.2,0.3,0.4,0.6,0.6,0.8
			c1.7,2,4.1,3.5,6.7,4.2c0.8,0.3,1.7,0.5,2.6,0.6v8.8l-2.7-0.4c0.2,0.7,0.5,1.3,1,1.8c0.7,0.7,1.6,1.1,2.6,1.1c1,0,1.9-0.4,2.6-1.1
			c0.5-0.5,0.8-1.1,1-1.7l-2.6,0.4V55c0.9-0.1,1.8-0.3,2.6-0.6c2.6-0.7,4.9-2.2,6.7-4.2c0.2-0.3,0.4-0.5,0.7-0.8l1.5,0.8
			c-0.3,0.4-0.6,0.8-0.9,1.1c-2.2,2.6-5.4,4.4-8.9,5V58c0.7,0.4,1.3,1,1.8,1.6c0.4,0.6,0.6,1.2,0.8,1.9l3.6-0.6l1.9-5.4l1.7,0.2
			l-2.4,6.8l-4.7,0.8c-0.1,1.3-0.7,2.4-1.5,3.2c-1,1-2.3,1.6-3.8,1.6c-1.5,0-2.8-0.6-3.8-1.6C38.8,65.5,38.2,64.4,38.1,63.1z
			 M40.9,59.9c-0.2,0.2-0.4,0.4-0.6,0.7c-0.2,0.3-0.4,0.7-0.5,1.1l1,0.2V59.9z M46.9,61.7c-0.1-0.4-0.3-0.8-0.5-1.2
			c-0.1-0.2-0.2-0.3-0.4-0.5v1.8L46.9,61.7z M73.3,0L87,18.2L71.6,34.6l-8.7-2.3l-0.5,3.4l-2.2,0.3c-0.4-2.2-1.4-4.3-2.7-6.1
			l1.2-1.1c1,1.3,1.7,2.7,2.3,4.2l0.4-2.8l9.6,2.6l13.7-14.7L76.7,7.3l4.1,8.9l-9.3,9l-1.7-0.7l1.3-1.3l0.3-0.3l0.9-0.9v0l6.4-6.2
			l-6.9-15L73.3,0z M46,24.4l5.2-4.8l2.3,0.1l-1.7,1.6l-1.6,1.5c1.8,0.6,3.5,1.4,5,2.5L54,26.5c-1.5-1.1-3.3-1.9-5.2-2.4l-0.7,0.7
			C47.6,24.7,46.8,24.5,46,24.4z M55.7,19.9L55.7,19.9l9.1,0.5l4.7,2.1l-1.3,1.3l-3.8-1.7l-1-0.1l-5,4.9l-1.9,1.8
			c-0.4-0.4-0.8-0.8-1.2-1.2l1.2-1.2c0,0,0,0,0,0l0.9-0.9l0,0l3.6-3.6l-6.9-0.4L55.7,19.9z M44.4,31.7V26c0.5,0,1.1,0.1,1.7,0.2v1.7
			h0v2.6c1.4,0.4,2.7,1,3.8,1.9l2-1.8c-1.2-1-2.6-1.7-4.1-2.2v-1.8c2.5,0.8,4.8,2.2,6.6,4L51.7,33v0l-0.5,0.5c0.9,0.9,1.6,1.9,2.1,3
			c0.1,0.1,0.1,0.2,0.2,0.4l-1.5,0.7c-0.1-0.1-0.1-0.2-0.1-0.3c-0.9-2-2.5-3.6-4.5-4.5C46.3,32.2,45.4,31.9,44.4,31.7z M54.2,32.9
			l1.2-1.1c1.4,1.8,2.5,4,3,6.3l2.1-0.3v0l1.7-0.3l-1.3,9.3l-4.1,6L56.4,54l-1.7-0.1l0.6-1.8l4-5.9l0.9-6.6l-0.8,0.1v0L57,40
			l-2.7,0.4c0,0.3,0,0.6,0,0.8c0,1.4-0.2,2.8-0.7,4l2.4,1.2c0.6-1.5,1-3.1,1.1-4.8l1.7-0.3c0,2.7-0.7,5.2-2,7.3l-3.8-2l-0.1-0.1
			c-0.3,0.6-0.7,1.1-1.1,1.6c-1.4,1.7-3.4,3.1-5.7,3.7V53c-0.5,0.2-1.1,0.3-1.7,0.4V33.4c0.6,0.1,1.1,0.3,1.7,0.5v16.3
			c1.7-0.6,3.3-1.6,4.4-3c1.4-1.7,2.2-3.8,2.2-6.1v-0.6l-2.5,0.4v4.3h-1.7v-5.8l8.2-1.3C56.3,36.3,55.4,34.5,54.2,32.9z M13.7,0
			l1.4,0.9l-6.9,15l6.4,6.2l0,0l0.9,0.9l0.3,0.3l1.3,1.3l-1.7,0.7l-9.3-9l4.1-8.9L2.2,18.1l13.7,14.7l9.6-2.6l0.4,2.8
			c0.6-1.5,1.4-2.9,2.3-4.2l1.2,1.1c-1.3,1.8-2.2,3.9-2.7,6.1l-2.2-0.3l-0.5-3.4l-8.7,2.3L0,18.2L13.7,0z M33.4,19.7l2.3-0.1
			l5.2,4.8c-0.7,0.1-1.5,0.2-2.1,0.4l-0.7-0.7c-1.9,0.5-3.6,1.3-5.2,2.4l-1.2-1.2c1.5-1.1,3.2-1.9,5-2.5l-1.6-1.5L33.4,19.7z
			 M22.2,20.4l9.2-0.5l-0.1,0.1l1.6,1.5l-7,0.4l3.6,3.6l0,0l0.9,0.9c0,0,0,0,0,0l1.2,1.2c-0.4,0.4-0.8,0.7-1.2,1.2l-1.9-1.8l-5-4.9
			l-1,0.1l-3.8,1.7l-1.3-1.3L22.2,20.4z M40,26.3c0.7-0.1,1.8-0.2,2.5-0.3v23c-0.6-0.1-1.1-0.3-1.7-0.5V33.2v-3v-2.4
			c-2.2,0.4-4.1,1.4-5.8,2.7l2,1.8c0.7-0.5,1.4-0.9,2.1-1.3v1.9c-1.8,1-3.3,2.6-4.1,4.6l-1.5-0.7c0.5-1.3,1.3-2.4,2.3-3.4L35.3,33
			l0,0l-2.7-2.5C34.6,28.5,37.2,27,40,26.3z M28.6,38.1c0.5-2.4,1.5-4.5,3-6.3l1.2,1.1c-1.2,1.6-2.1,3.4-2.5,5.4l8.2,1.3v5.8h-1.7
			v-4.3l-2.5-0.4c0,0.2,0,0.4,0,0.6c0,2.3,0.8,4.4,2.2,6.1c0.9,1.1,2,1.9,3.3,2.5v0c0.1,0.1,0.2,0.1,0.3,0.2c0.1,0,0.2,0.1,0.3,0.1
			c0.1,0,0.2,0.1,0.3,0.1c0.1,0,0.1,0,0.2,0.1v0c0.5,0.2,1.1,0.3,1.7,0.4v2.6c-0.6-0.1-1.1-0.2-1.7-0.4v-0.9
			c-2.3-0.6-4.2-1.9-5.7-3.7c-0.4-0.5-0.8-1-1.1-1.6L34,46.8l-3.8,2c-1.2-2.2-1.9-4.7-2-7.3l1.7,0.3c0.1,1.7,0.4,3.3,1,4.8l2.4-1.2
			c-0.5-1.3-0.7-2.6-0.7-4c0-0.3,0-0.6,0-0.8L30,40l-2.4-0.4v0l-0.8-0.1l0.9,6.6l4,5.9l0.6,1.8L30.6,54l-0.4-1.2l-4.1-6l-1.3-9.3
			l1.7,0.3l0,0L28.6,38.1z"/>
	</g>
</g>
</svg>
