<svg xmlns="http://www.w3.org/2000/svg" width="139.71" height="139.71" viewBox="0 0 139.71 139.71">
  <defs>
    <style>
      .a {
        fill: #232644;
      }

      .b {
        fill: #fff;
      }
    </style>
  </defs>
  <title>IELE</title>
  <g>
    <circle class="a" cx="69.86" cy="69.86" r="69.86"/>
    <g>
      <circle cx="69.86" cy="69.86" r="69.86"/>
      <path class="b" d="M115.66,89.46h8.73a1.09,1.09,0,0,1,1.09,1.1v2.18a1.09,1.09,0,0,1-1.09,1.09h-13.1a1.09,1.09,0,0,1-1.09-1.09V67.63a1.09,1.09,0,0,1,1.09-1.09h13.1a1.09,1.09,0,0,1,1.09,1.09v2.19a1.09,1.09,0,0,1-1.09,1.09h-8.73v6.55h7.64a1.09,1.09,0,0,1,1.09,1.09v2.18a1.09,1.09,0,0,1-1.09,1.09h-7.64Zm-39.29,0H85.1a1.09,1.09,0,0,1,1.09,1.1v2.18a1.09,1.09,0,0,1-1.09,1.09H72a1.09,1.09,0,0,1-1.09-1.09V67.63A1.09,1.09,0,0,1,72,66.54H85.1a1.09,1.09,0,0,1,1.09,1.09v2.19a1.09,1.09,0,0,1-1.09,1.09H76.37v6.55H84a1.09,1.09,0,0,1,1.09,1.09v2.18A1.09,1.09,0,0,1,84,81.82H76.37ZM97.1,88.37h7.65a1.09,1.09,0,0,1,1.09,1.09v3.28a1.09,1.09,0,0,1-1.09,1.09h-12a1.09,1.09,0,0,1-1.09-1.09V67.63a1.09,1.09,0,0,1,1.09-1.09H96a1.09,1.09,0,0,1,1.09,1.09Zm-40.43,51.8A69.86,69.86,0,1,1,122.25,23.48,69.87,69.87,0,0,0,56.67,140.17ZM60,66.54h3.28a1.09,1.09,0,0,1,1.09,1.09V92.74a1.09,1.09,0,0,1-1.09,1.09H60a1.09,1.09,0,0,1-1.09-1.09V67.63A1.09,1.09,0,0,1,60,66.54Z" transform="translate(-2.14 -2.14)"/>
    </g>
  </g>
</svg>
