<?xml version="1.0" encoding="utf-8"?>
<!-- Generator: Adobe Illustrator 22.0.1, SVG Export Plug-In . SVG Version: 6.00 Build 0)  -->
<svg version="1.1" id="Layer_1" xmlns="http://www.w3.org/2000/svg" xmlns:xlink="http://www.w3.org/1999/xlink" x="0px" y="0px"
	 viewBox="0 0 144 144" style="enable-background:new 0 0 144 144;" xml:space="preserve">
<style type="text/css">
	.st0{fill:#E42527;}
	.st1{fill:#1D1E1C;}
</style>
<path class="st0" d="M11.5,25.5c-0.2-2.1-2.1-3.7-4.2-3.7C4.9,21.8,3,23.7,3,26c0,2.3,1.9,4.2,4.2,4.2c2,0,3.7-1.5,4.1-3.4
	c30.7,0.3,55.9,18.4,57.9,41.3c-1.6-3.1-4.7-8.3-9.8-13.5c-7.3-7.5-20.2-16.5-40.3-16.5c-0.1,0-0.2,0-0.2,0c-0.3-2-2.1-3.5-4.1-3.5
	c-2.3,0-4.2,1.9-4.2,4.2s1.9,4.2,4.2,4.2c2.1,0,3.9-1.6,4.2-3.7c0.1,0,0.1,0,0.2,0c19.6,0,32.2,8.8,39.3,16.1
	C63,60.2,66,65,67.6,68.1c-2.2-2-5.6-4.8-9.8-7.6c-7.1-4.7-18.2-10.2-30.7-10.2c-0.3-2-2.1-3.6-4.2-3.6c-2.3,0-4.2,1.9-4.2,4.2
	c0,2.3,1.9,4.2,4.2,4.2c2.1,0,3.8-1.5,4.2-3.5c18.7,0,34.5,12.7,40.2,17.9c-6.3-2.3-21.3-7.2-32.6-7.4c-0.2-2.2-2-3.9-4.2-3.9
	c-2.3,0-4.2,1.9-4.2,4.2c0,2.3,1.9,4.2,4.2,4.2c2,0,3.6-1.5,4.1-3.4c11.1,0.2,26.1,5.2,32.3,7.3h-17h-4.7c-0.2-2-2-3.6-4.2-3.6
	c-2.3,0-4.2,1.9-4.2,4.3c0,2.3,1.9,4.1,4.2,4.1c2,0,3.7-1.4,4.1-3.4h4.8h16.7c-6.4,2.7-21.1,7.2-32,7.4c-0.4-1.9-2.1-3.2-4.1-3.2
	c-2.3,0-4.2,1.9-4.2,4.2c0,2.3,1.9,4.2,4.2,4.2c2.2,0,4-1.7,4.2-3.9c11.3-0.2,26.3-5.2,32.6-7.4c-5.7,5.2-21.5,17.9-40.2,17.9
	c-0.3-2-2.1-3.5-4.2-3.5c-2.3,0-4.2,1.9-4.2,4.2c0,2.3,1.9,4.2,4.2,4.2c2.1,0,3.8-1.5,4.2-3.6c12.5,0,23.6-5.6,30.7-10.2
	c4.3-2.8,7.7-5.7,9.9-7.7c-1.6,3.1-4.6,8-9.3,12.8c-7.1,7.4-19.8,16.1-39.3,16.1c-0.1,0-0.1,0-0.2,0c-0.2-2.1-2-3.8-4.2-3.8
	c-2.3,0-4.2,1.9-4.2,4.2c0,2.3,1.9,4.2,4.2,4.2c2,0,3.8-1.5,4.1-3.4c0.1,0,0.2,0,0.2,0c20,0,33-9,40.3-16.5c5-5.1,8.1-10.2,9.7-13.4
	c-2.5,22.5-27.5,40.3-57.9,40.5c-0.6-1.7-2.1-2.8-4-2.8c-2.3,0-4.2,1.9-4.2,4.2c0,2.3,1.9,4.2,4.2,4.2s4.2-1.9,4.2-4.2
	c0,0,0.1,0,0.1-0.1c32.5-0.3,58.6-20.3,59.3-45v-0.5C70.8,46.2,44.2,25.8,11.5,25.5 M10.1,26.5c-0.2,1.4-1.4,2.4-2.9,2.4
	c-1.6,0-2.9-1.3-2.9-2.9c0-1.6,1.3-2.9,2.9-2.9c1.5,0,2.8,1.2,2.9,2.7C10,25.9,10,26.1,10,26.2C10,26.3,10,26.4,10.1,26.5
	 M14.7,41.7c-1.6,0-2.9-1.3-2.9-2.9s1.3-2.9,2.9-2.9s2.9,1.3,2.9,2.9S16.3,41.7,14.7,41.7 M22.9,53.8c-1.6,0-2.9-1.3-2.9-2.9
	c0-1.6,1.3-2.9,2.9-2.9c1.6,0,2.9,1.3,2.9,2.9C25.8,52.5,24.5,53.8,22.9,53.8 M33.3,63c-0.3,1.3-1.4,2.3-2.8,2.3
	c-1.6,0-2.9-1.3-2.9-2.9s1.3-2.9,2.9-2.9c1.6,0,2.9,1.3,2.9,2.8c-0.1,0.1-0.1,0.2-0.1,0.4C33.3,62.8,33.3,62.9,33.3,63 M41,74.2
	c-1.6,0-2.9-1.3-2.9-2.9s1.3-2.9,2.9-2.9c1.6,0,2.9,1.3,2.9,2.9S42.6,74.2,41,74.2 M30.5,83.2c-1.6,0-2.9-1.3-2.9-2.9
	c0-1.6,1.3-2.9,2.9-2.9c1.4,0,2.6,1,2.8,2.3c0,0.1-0.1,0.2-0.1,0.3c0,0.1,0,0.3,0.1,0.4C33.3,82,32.1,83.2,30.5,83.2 M22.9,94.7
	c-1.6,0-2.9-1.3-2.9-2.9c0-1.6,1.3-2.9,2.9-2.9c1.6,0,2.9,1.3,2.9,2.9C25.8,93.4,24.5,94.7,22.9,94.7 M14.7,106.8
	c-1.6,0-2.9-1.3-2.9-2.9c0-1.6,1.3-2.9,2.9-2.9s2.9,1.3,2.9,2.9C17.6,105.5,16.3,106.8,14.7,106.8 M7.2,119.6
	c-1.6,0-2.9-1.3-2.9-2.9s1.3-2.9,2.9-2.9c1.3,0,2.5,0.9,2.8,2.1c0,0,0,0,0,0.1c0,0.1,0,0.2,0.1,0.3c0,0.1,0,0.3,0,0.4
	C10.1,118.3,8.8,119.6,7.2,119.6"/>
<path class="st1" d="M72.8,71.6c0.7,24.7,26.6,44.7,59.1,45c0,0,0,0,0,0.1c0,2.3,1.9,4.2,4.2,4.2c2.3,0,4.2-1.9,4.2-4.2
	s-1.9-4.2-4.2-4.2c-1.8,0-3.4,1.2-4,2.8c-30.4-0.2-55.4-18-57.9-40.5c1.6,3.2,4.7,8.3,9.7,13.4c7.3,7.5,20.2,16.5,40.3,16.5
	c0.1,0,0.2,0,0.2,0c0.4,1.9,2.1,3.4,4.1,3.4c2.3,0,4.2-1.9,4.2-4.2c0-2.3-1.9-4.2-4.2-4.2c-2.2,0-4,1.7-4.2,3.8c-0.1,0-0.1,0-0.2,0
	c-19.6,0-32.2-8.8-39.3-16.1c-4.7-4.8-7.7-9.7-9.3-12.8c2.2,2,5.6,4.8,9.9,7.7c7.1,4.7,18.2,10.2,30.7,10.2c0.3,2,2.1,3.6,4.2,3.6
	c2.3,0,4.2-1.9,4.2-4.2c0-2.3-1.9-4.2-4.2-4.2c-2.1,0-3.8,1.5-4.1,3.5c-18.7,0-34.5-12.7-40.2-17.9c6.3,2.3,21.3,7.2,32.6,7.4
	c0.2,2.2,2,3.9,4.2,3.9c2.3,0,4.2-1.9,4.2-4.2c0-2.3-1.9-4.3-4.2-4.3c-2,0-3.6,1.4-4.1,3.2c-10.9-0.2-25.6-4.6-32-7.4h16.7h4.8
	c0.4,2,2.1,3.4,4.1,3.4c2.3,0,4.2-1.8,4.2-4.1c0-2.3-1.9-4.2-4.2-4.2c-2.2,0-3.9,1.5-4.2,3.6h-4.7h-17c6.2-2,21.2-7.1,32.3-7.3
	c0.4,1.9,2.1,3.4,4.1,3.4c2.3,0,4.2-1.9,4.2-4.2s-1.9-4.2-4.2-4.2c-2.2,0-4,1.7-4.2,3.9c-11.3,0.2-26.3,5.2-32.6,7.4
	c5.7-5.2,21.5-17.9,40.2-17.9c0.3,2,2.1,3.5,4.1,3.5c2.3,0,4.2-1.9,4.2-4.2c0-2.3-1.9-4.2-4.2-4.2c-2.1,0-3.8,1.5-4.2,3.6
	c-12.5,0-23.6,5.6-30.7,10.2c-4.2,2.8-7.6,5.6-9.8,7.6c1.7-3.1,4.7-7.9,9.2-12.6c7.1-7.3,19.7-16.1,39.3-16.1c0.1,0,0.1,0,0.2,0
	c0.3,2.1,2,3.7,4.2,3.7c2.3,0,4.2-1.9,4.2-4.2c0-2.3-1.9-4.2-4.2-4.2c-2.1,0-3.8,1.5-4.1,3.5c-0.1,0-0.1,0-0.2,0
	c-20,0-33,9-40.3,16.5c-5.1,5.2-8.2,10.4-9.8,13.5c2-22.9,27.1-41,57.9-41.3c0.4,1.9,2.1,3.4,4.1,3.4c2.3,0,4.2-1.9,4.2-4.2
	c0-2.3-1.9-4.2-4.2-4.2c-2.2,0-3.9,1.6-4.1,3.7c-32.7,0.3-59.2,20.6-59.2,45.6V71.6z M133.2,26.5c0-0.1,0.1-0.2,0.1-0.3
	c0-0.1,0-0.2-0.1-0.3c0.1-1.5,1.4-2.7,2.9-2.7c1.6,0,2.9,1.3,2.9,2.9c0,1.6-1.3,2.9-2.9,2.9C134.6,28.9,133.4,27.9,133.2,26.5
	 M125.6,38.8c0-1.6,1.3-2.9,2.9-2.9c1.6,0,2.9,1.3,2.9,2.9c0,1.6-1.3,2.9-2.9,2.9C126.9,41.7,125.6,40.4,125.6,38.8 M117.4,50.9
	c0-1.6,1.3-2.9,2.9-2.9c1.6,0,2.9,1.3,2.9,2.9c0,1.6-1.3,2.9-2.9,2.9C118.7,53.8,117.4,52.5,117.4,50.9 M99.4,71.3
	c0-1.6,1.3-2.9,2.9-2.9s2.9,1.3,2.9,2.9s-1.3,2.9-2.9,2.9S99.4,72.9,99.4,71.3 M117.4,91.8c0-1.6,1.3-2.9,2.9-2.9
	c1.6,0,2.9,1.3,2.9,2.9c0,1.6-1.3,2.9-2.9,2.9C118.7,94.7,117.4,93.4,117.4,91.8 M125.6,103.9c0-1.6,1.3-2.9,2.9-2.9
	c1.6,0,2.9,1.3,2.9,2.9s-1.3,2.9-2.9,2.9C126.9,106.8,125.6,105.5,125.6,103.9 M133.2,116.7c0-0.1,0-0.3,0-0.4
	c0.1-0.1,0.1-0.2,0.1-0.3c0,0,0,0,0-0.1c0.3-1.2,1.5-2.1,2.8-2.1c1.6,0,2.9,1.3,2.9,2.9c0,1.6-1.3,2.9-2.9,2.9
	C134.5,119.6,133.2,118.3,133.2,116.7 M110,63c0-0.1,0.1-0.2,0.1-0.3c0-0.1,0-0.3-0.1-0.4c0-1.6,1.3-2.8,2.9-2.8
	c1.6,0,2.9,1.3,2.9,2.9c0,1.6-1.3,2.9-2.9,2.9C111.4,65.3,110.2,64.3,110,63 M109.9,80.4c0.1-0.1,0.1-0.2,0.1-0.4
	c0-0.1,0-0.2-0.1-0.3c0.3-1.3,1.4-2.3,2.8-2.3c1.6,0,2.9,1.3,2.9,2.9c0,1.6-1.3,2.9-2.9,2.9C111.2,83.2,109.9,82,109.9,80.4"/>
</svg>
