<?xml version="1.0" encoding="utf-8"?>
<!-- Generator: Adobe Illustrator 15.1.0, SVG Export Plug-In . SVG Version: 6.00 Build 0)  -->
<!DOCTYPE svg PUBLIC "-//W3C//DTD SVG 1.1//EN" "http://www.w3.org/Graphics/SVG/1.1/DTD/svg11.dtd">
<svg version="1.1" id="Layer_1" xmlns="http://www.w3.org/2000/svg" xmlns:xlink="http://www.w3.org/1999/xlink" x="0px" y="0px"
	 width="274.75px" height="68px" viewBox="0 0 274.75 68" enable-background="new 0 0 274.75 68" xml:space="preserve">
<g>
	<g>
		<path fill="#C8C8C8" d="M116.002,27.547c1.411,0.748,2.508,1.79,3.289,3.126s1.172,2.86,1.172,4.575
			c0,1.713-0.399,3.238-1.197,4.574c-0.799,1.336-1.912,2.377-3.34,3.125s-3.059,1.121-4.889,1.121h-7.335V26.426h7.485
			C112.985,26.426,114.59,26.8,116.002,27.547z M113.922,40.023c0.781-0.462,1.391-1.104,1.828-1.928
			c0.437-0.823,0.654-1.765,0.654-2.823s-0.23-2.008-0.692-2.849c-0.462-0.84-1.093-1.49-1.891-1.953
			c-0.798-0.461-1.701-0.693-2.71-0.693h-3.428v10.939h3.605C112.263,40.717,113.141,40.486,113.922,40.023z"/>
		<path fill="#C8C8C8" d="M140.172,44.068l-1.386-3.428h-8.166l-1.386,3.428h-4.109l7.662-17.643h4.109l7.535,17.643H140.172z
			 M131.931,37.439h5.57l-2.772-6.855L131.931,37.439z"/>
		<path fill="#C8C8C8" d="M150.809,26.426h13.434v3.302h-9.451v3.831h8.494v3.302h-8.494v3.907h9.729v3.301h-13.711V26.426z"/>
		<path fill="#C8C8C8" d="M184.481,27.547c1.411,0.748,2.508,1.79,3.29,3.126c0.781,1.336,1.172,2.86,1.172,4.575
			c0,1.713-0.4,3.238-1.197,4.574c-0.799,1.336-1.912,2.377-3.34,3.125c-1.429,0.748-3.059,1.121-4.89,1.121h-7.335V26.426h7.486
			C181.465,26.426,183.07,26.8,184.481,27.547z M182.402,40.023c0.781-0.462,1.391-1.104,1.827-1.928s0.655-1.765,0.655-2.823
			s-0.23-2.008-0.693-2.849c-0.462-0.84-1.092-1.49-1.891-1.953c-0.797-0.461-1.701-0.693-2.709-0.693h-3.428v10.939h3.604
			C180.742,40.717,181.621,40.486,182.402,40.023z"/>
		<path fill="#C8C8C8" d="M208.652,44.068l-1.387-3.428H199.1l-1.386,3.428h-4.108l7.662-17.643h4.108l7.536,17.643H208.652z
			 M200.41,37.439h5.57l-2.771-6.855L200.41,37.439z"/>
		<path fill="#C8C8C8" d="M219.289,26.426h3.981v14.165h7.562v3.478h-11.543V26.426z"/>
		<path fill="#C8C8C8" d="M242.488,39.771c0.715,0.73,1.668,1.096,2.861,1.096c1.159,0,2.083-0.36,2.771-1.083
			c0.689-0.722,1.034-1.722,1.034-2.999V26.426h3.981v10.359c0,1.546-0.314,2.886-0.944,4.02c-0.63,1.135-1.534,2.008-2.71,2.621
			s-2.562,0.92-4.158,0.92c-1.597,0-2.991-0.307-4.184-0.92c-1.193-0.613-2.109-1.486-2.748-2.621
			c-0.639-1.134-0.957-2.474-0.957-4.02V26.426h3.982v10.359C241.418,38.045,241.774,39.041,242.488,39.771z"/>
		<path fill="#C8C8C8" d="M269.986,30.018c-1.018-0.328-1.887-0.492-2.609-0.492c-0.689,0-1.234,0.127-1.638,0.379
			s-0.604,0.621-0.604,1.109c0,0.621,0.289,1.096,0.869,1.424c0.58,0.327,1.475,0.668,2.684,1.021
			c1.211,0.353,2.206,0.706,2.987,1.059s1.449,0.882,2.004,1.588c0.554,0.706,0.831,1.638,0.831,2.798
			c0,1.125-0.298,2.096-0.895,2.91c-0.596,0.816-1.416,1.434-2.457,1.854c-1.042,0.42-2.227,0.63-3.555,0.63
			c-1.428,0-2.831-0.253-4.209-0.757c-1.377-0.504-2.57-1.192-3.578-2.066l1.588-3.251c0.891,0.806,1.915,1.453,3.074,1.94
			c1.16,0.488,2.219,0.73,3.176,0.73c0.823,0,1.467-0.15,1.929-0.453s0.692-0.739,0.692-1.311c0-0.453-0.155-0.828-0.466-1.121
			c-0.312-0.295-0.706-0.533-1.185-0.719s-1.139-0.395-1.979-0.631c-1.21-0.336-2.197-0.672-2.961-1.008
			c-0.766-0.336-1.425-0.848-1.979-1.537c-0.555-0.689-0.832-1.604-0.832-2.748c0-1.059,0.285-1.986,0.856-2.785
			c0.571-0.797,1.37-1.41,2.395-1.84c1.024-0.428,2.218-0.643,3.579-0.643c1.21,0,2.402,0.177,3.579,0.529
			c1.176,0.354,2.218,0.824,3.125,1.412l-1.537,3.302C271.965,30.786,271.002,30.346,269.986,30.018z"/>
	</g>
	<g id="Page-1_6_">
		<g id="full_6_">
			<path id="Combined-Shape_6_" fill="#82FF65" d="M38.078,63.134l-4.554-0.742l-2.393-6.773l1.733-0.166l1.911,5.447l3.401,0.551
				c0.138-0.623,0.385-1.212,0.722-1.734c0.496-0.762,1.188-1.389,1.992-1.816v-1.508c-3.512-0.652-6.613-2.464-8.857-5.045
				c-0.315-0.354-0.626-0.746-0.902-1.133l1.518-0.795c0.205,0.287,0.415,0.558,0.648,0.828c1.738,2.001,4.061,3.48,6.681,4.205
				c0.831,0.304,1.7,0.508,2.597,0.592v8.822l-2.748-0.447c0.154,0.684,0.5,1.294,0.983,1.773c0.665,0.651,1.573,1.064,2.581,1.064
				c1.009,0,1.922-0.413,2.587-1.064c0.478-0.471,0.812-1.07,0.968-1.742l-2.553,0.416v-8.822c0.896-0.084,1.762-0.288,2.587-0.592
				c2.63-0.725,4.94-2.204,6.676-4.205c0.231-0.271,0.442-0.541,0.659-0.828l1.521,0.795c-0.293,0.387-0.58,0.778-0.896,1.133
				c-2.25,2.581-5.352,4.393-8.875,5.045v1.596c0.699,0.408,1.301,0.973,1.758,1.629c0.374,0.561,0.648,1.188,0.795,1.859
				l3.563-0.576l1.917-5.447l1.728,0.166l-2.393,6.773l-4.727,0.771c-0.131,1.256-0.698,2.357-1.538,3.199
				c-0.963,0.968-2.298,1.569-3.777,1.569c-1.468,0-2.818-0.602-3.777-1.569C38.769,65.515,38.203,64.402,38.078,63.134z
				 M40.892,59.936c-0.219,0.202-0.414,0.432-0.574,0.681c-0.215,0.34-0.375,0.712-0.473,1.104l1.047,0.169V59.936z M46.946,61.747
				c-0.103-0.431-0.278-0.828-0.519-1.181c-0.109-0.158-0.23-0.31-0.362-0.451v1.774L46.946,61.747z M73.265,0l13.688,18.2
				L71.603,34.621L62.9,32.29l-0.472,3.447l-2.188,0.35c-0.432-2.239-1.373-4.305-2.676-6.096l1.247-1.148
				c0.954,1.265,1.733,2.663,2.292,4.154l0.383-2.829l9.584,2.575l13.699-14.659L76.666,7.293l4.109,8.94l-9.256,8.994l-1.673-0.734
				l1.312-1.265l0.277-0.265l0.926-0.879v-0.012l6.387-6.221L71.842,0.851L73.265,0z M46.043,24.417l5.196-4.824l2.276,0.133
				l-1.661,1.586l-1.601,1.48c1.816,0.569,3.483,1.425,4.979,2.509l-1.246,1.188c-1.523-1.083-3.29-1.89-5.162-2.354l-0.698,0.652
				C47.551,24.659,46.774,24.521,46.043,24.417z M55.744,19.924l-0.089-0.066l9.15,0.53l4.688,2.101l-1.303,1.26l-3.806-1.691
				l-1.042-0.066l-4.952,4.945l-1.878,1.752c-0.382-0.409-0.769-0.784-1.197-1.155l1.227-1.159c0,0.005,0.016,0.011,0.033,0.011
				l0.874-0.867l0.022-0.027l3.623-3.631l-6.941-0.408L55.744,19.924z M44.394,31.704v-5.713c0.504,0.039,1.112,0.094,1.683,0.16
				v1.658h-0.011v2.607c1.406,0.393,2.715,1.038,3.833,1.9l1.956-1.807c-1.213-0.961-2.598-1.724-4.094-2.238v-1.768
				c2.525,0.763,4.773,2.155,6.587,3.99l-2.666,2.458v0.005l-0.515,0.486c0.854,0.885,1.562,1.901,2.1,3.033
				c0.061,0.123,0.111,0.25,0.167,0.37l-1.546,0.669c-0.055-0.116-0.099-0.221-0.139-0.325c-0.939-1.967-2.525-3.57-4.481-4.531
				C46.343,32.19,45.379,31.876,44.394,31.704z M54.203,32.903l1.235-1.144c1.436,1.828,2.47,3.978,2.952,6.331l2.067-0.314v-0.022
				l1.74-0.276l-1.276,9.293l-4.114,6.035l-0.405,1.182l-1.74-0.132l0.649-1.812l4-5.892l0.896-6.635l-0.83,0.127v-0.007
				l-2.394,0.377l-2.682,0.402c0.013,0.271,0.017,0.554,0.017,0.824c0,1.414-0.248,2.773-0.731,4.027l2.388,1.238
				c0.631-1.487,0.986-3.105,1.053-4.802l1.684-0.265c-0.016,2.657-0.73,5.172-1.967,7.348l-3.771-1.951l-0.11-0.059
				c-0.329,0.568-0.692,1.109-1.114,1.605c-1.44,1.748-3.417,3.057-5.684,3.681v0.923c-0.525,0.173-1.102,0.299-1.672,0.359V33.423
				c0.57,0.116,1.146,0.293,1.672,0.536v16.35c1.729-0.569,3.259-1.613,4.398-2.99c1.369-1.657,2.173-3.779,2.173-6.077v-0.57
				l-2.466,0.383v4.348h-1.686V39.61l8.239-1.26C56.292,36.334,55.41,34.488,54.203,32.903z M13.688,0l1.445,0.851l-6.92,15.002
				l6.399,6.221l-0.012,0.012l0.925,0.879l0.283,0.265l1.312,1.265l-1.679,0.734l-9.257-8.994l4.121-8.94L2.193,18.084
				l13.705,14.659l9.577-2.575l0.377,2.829c0.576-1.491,1.352-2.89,2.299-4.154l1.234,1.148c-1.302,1.779-2.227,3.856-2.664,6.096
				l-2.193-0.35l-0.477-3.447l-8.702,2.331L0,18.2L13.688,0z M33.446,19.726l2.283-0.133l5.179,4.824
				c-0.726,0.104-1.489,0.242-2.071,0.369l-0.693-0.652c-1.889,0.465-3.633,1.271-5.168,2.354l-1.24-1.188
				c1.49-1.084,3.157-1.939,4.963-2.509l-1.589-1.48L33.446,19.726z M22.157,20.388l9.151-0.53l-0.083,0.066l1.59,1.526
				l-6.957,0.408l3.639,3.631l0.012,0.005l0.893,0.89c0,0,0.01-0.006,0.016-0.011l1.224,1.159c-0.415,0.371-0.808,0.746-1.175,1.155
				l-1.887-1.752l-4.97-4.945l-1.042,0.066l-3.789,1.691l-1.312-1.26L22.157,20.388z M40.05,26.278
				c0.737-0.145,1.768-0.227,2.525-0.287v23.003c-0.58-0.095-1.146-0.271-1.684-0.488V33.169v-2.957V27.81
				c-2.16,0.44-4.121,1.381-5.777,2.701l1.95,1.807c0.659-0.503,1.385-0.934,2.149-1.282v1.885
				c-1.845,1.028-3.302,2.646-4.139,4.597l-1.545-0.669c0.549-1.265,1.312-2.419,2.271-3.403l-0.532-0.486l0.017-0.005l-2.653-2.458
				C34.621,28.455,37.175,26.969,40.05,26.278z M28.567,38.091c0.486-2.354,1.523-4.503,2.957-6.331l1.23,1.144
				c-1.207,1.585-2.083,3.431-2.521,5.447l8.243,1.26v5.791h-1.688v-4.348l-2.455-0.383c-0.005,0.189-0.017,0.383-0.017,0.57
				c0,2.298,0.814,4.42,2.188,6.077c0.896,1.072,2.021,1.945,3.301,2.541v0.013c0.123,0.055,0.233,0.104,0.35,0.154
				c0.1,0.044,0.199,0.077,0.299,0.115c0.088,0.039,0.178,0.072,0.271,0.105c0.056,0.011,0.111,0.05,0.166,0.062v-0.005
				c0.549,0.181,1.113,0.313,1.684,0.402v2.641c-0.57-0.061-1.135-0.187-1.684-0.359v-0.923c-2.254-0.624-4.227-1.933-5.684-3.681
				c-0.41-0.496-0.787-1.037-1.113-1.605l-0.116,0.059l-3.756,1.951c-1.229-2.176-1.943-4.69-1.983-7.348l1.695,0.265
				c0.057,1.696,0.422,3.314,1.042,4.802l2.403-1.238c-0.481-1.254-0.747-2.613-0.747-4.027c0-0.271,0.005-0.553,0.027-0.824
				l-2.675-0.402l-2.399-0.377v0.007l-0.836-0.127l0.897,6.635l4.011,5.892l0.642,1.812l-1.733,0.132l-0.427-1.182l-4.094-6.035
				l-1.272-9.293l1.727,0.276l0.012,0.022L28.567,38.091z"/>
		</g>
	</g>
</g>
</svg>
