<?xml version="1.0" encoding="utf-8"?>
<!-- Generator: Adobe Illustrator 22.0.1, SVG Export Plug-In . SVG Version: 6.00 Build 0)  -->
<svg version="1.1" id="Layer_1" xmlns="http://www.w3.org/2000/svg" xmlns:xlink="http://www.w3.org/1999/xlink" x="0px" y="0px"
	 viewBox="0 0 560 400" style="enable-background:new 0 0 560 400;" xml:space="preserve">
<style type="text/css">
	.st0{fill:url(#SVGID_1_);}
	.st1{fill:url(#SVGID_2_);}
	.st2{fill:url(#SVGID_3_);}
</style>
<g>
	<linearGradient id="SVGID_1_" gradientUnits="userSpaceOnUse" x1="375.6774" y1="253.159" x2="375.6774" y2="377.1149">
		<stop  offset="0.2205" style="stop-color:#832DC4"/>
		<stop  offset="0.3774" style="stop-color:#5E35B8"/>
		<stop  offset="0.5427" style="stop-color:#3F3DAD"/>
		<stop  offset="0.7037" style="stop-color:#2942A6"/>
		<stop  offset="0.8571" style="stop-color:#1C45A2"/>
		<stop  offset="0.9944" style="stop-color:#1746A0"/>
	</linearGradient>
	<path class="st0" d="M349.5,290.5c-0.1,0.3-1.6,2-1.7,2.3c8,29.9,11,55.4,13.8,84.3h42.1c-4.4-42-8-84.2-25.3-124L349.5,290.5z"/>
	<linearGradient id="SVGID_2_" gradientUnits="userSpaceOnUse" x1="150.989" y1="128.6133" x2="150.989" y2="377.1149">
		<stop  offset="0.2205" style="stop-color:#832DC4"/>
		<stop  offset="0.3774" style="stop-color:#5E35B8"/>
		<stop  offset="0.5427" style="stop-color:#3F3DAD"/>
		<stop  offset="0.7037" style="stop-color:#2942A6"/>
		<stop  offset="0.8571" style="stop-color:#1C45A2"/>
		<stop  offset="0.9944" style="stop-color:#1746A0"/>
	</linearGradient>
	<path class="st1" d="M237.6,163.3c-7.5,9.3-13.5,16.6-20.1,24.7c-28-19-54.8-37.3-86.6-46.9c-32.2-9.7-64.3-15-97.7-11.4
		c0,83.7,0,165.3,0,247.4c14.1,0,26.9,0,41.5,0V173c41.9,7.3,86.1,22.8,120.6,55.6c-20.4,47-31.3,95.8-32.5,148.6h43.1c0,0,0,0,0,0
		c-0.1-68.9,23.1-128.9,62.8-184C258,182.7,248,173.2,237.6,163.3z"/>
	<linearGradient id="SVGID_3_" gradientUnits="userSpaceOnUse" x1="283.2698" y1="30.2741" x2="283.2698" y2="377.1149">
		<stop  offset="0.2205" style="stop-color:#832DC4"/>
		<stop  offset="0.3774" style="stop-color:#5E35B8"/>
		<stop  offset="0.5427" style="stop-color:#3F3DAD"/>
		<stop  offset="0.7037" style="stop-color:#2942A6"/>
		<stop  offset="0.8571" style="stop-color:#1C45A2"/>
		<stop  offset="0.9944" style="stop-color:#1746A0"/>
	</linearGradient>
	<path class="st2" d="M533.2,164.6V129c-32.5-1.8-68.4,2.9-100.1,12.6c-31.7,9.7-57.8,28.9-87.2,47.2c-9.1-15.8-19.3-28.6-29.7-43.7
		c49.8-40.7,109-65.2,174.1-70.5v28.9c0,0.5,0.1,1,0.1,1.5c13.8,0,28.4,0,42.8,0V31.1C487,27.8,441.5,34.9,399,49
		c-43.2,14.4-82.1,37.1-116.4,66.5c-74-64-173.2-91.6-249.3-83v71.6c0,0.3,0,0.5,0.1,0.8c14.6,0,27.7,0,41.3,0V73.6
		C177.5,86,259,133.7,315,219.9c-11.1,17.9-21.4,33.2-32.6,52.5c-7-10.2-12.8-18.6-20.5-29.9c-7.7,18.7-15.3,35.6-20.9,49.1
		c6.3,13.7,11.7,27.9,14.8,41.6c3.2,14.2,5,28.8,6.2,43.8l41.7,0c2.9-121.1,106-201.3,185.6-201.3c0,33.3-0.1,66.7,0,100.1
		c0.1,33.6-0.7,67.3,0.6,101.2h43.3c0-68.8,0-136.5,0-204.1C533.2,170.2,533.2,167.4,533.2,164.6z M283.1,308.1h0.6v69h-0.6h-1.3
		h-0.6v-69h0.6c-3.3-0.3-5.8-3.1-5.8-6.4c0-3.6,2.9-6.4,6.4-6.4s6.4,2.9,6.4,6.4C288.9,305,286.3,307.8,283.1,308.1z"/>
</g>
</svg>
