<?xml version="1.0" encoding="utf-8"?>
<!-- Generator: Adobe Illustrator 22.0.1, SVG Export Plug-In . SVG Version: 6.00 Build 0)  -->
<svg version="1.1" id="Layer_1" xmlns="http://www.w3.org/2000/svg" xmlns:xlink="http://www.w3.org/1999/xlink" x="0px" y="0px"
	 viewBox="0 0 144 144" style="enable-background:new 0 0 144 144;" xml:space="preserve">
<style type="text/css">
	.st0{fill:#231F20;}
</style>
<g id="Group-12" transform="translate(3.000000, 0.000000)">
	<path id="Shape" class="st0" d="M15.7,42.2v4.9c0,1.5,0,3.1,0,4.7v4.8c0,0.1,0,0.2,0.1,0.3C42.6,75,69.3,93,96.2,111.1l10.9-7.4
		C76.6,83.2,46.2,62.8,15.7,42.2z"/>
	<path id="Shape_1_" class="st0" d="M84,34.1c-4.9,3.3-9.7,6.5-14.6,9.8c-0.7,0.4-1.1,0.5-1.8,0c-5.9-4.1-12-8.2-18-12.2
		c-6.3-4.4-12.5-8.8-18.8-13.1c-3-2-5.9-4.1-8.9-6.1H0.4c1.2,0.8,2.1,1.4,3,2.1c5.6,3.8,11.3,7.7,16.9,11.6
		c5.6,3.8,11.2,7.7,16.7,11.5c5.2,3.6,10.5,7.3,15.7,10.9c5,3.4,10,6.8,15,10.3c0.5,0.4,0.9,0.4,1.5,0c4-2.8,8.1-5.4,12.1-8.2
		c10-6.8,19.9-13.5,29.9-20.3c7.2-4.9,14.5-9.8,21.7-14.7c1.5-1,3-2,4.6-3.1h-21.7C105.3,19.6,94.7,26.9,84,34.1z"/>
	<path id="Shape_2_" class="st0" d="M15.8,79.4c-0.1,0.2-0.1,0.2-0.1,0.3c0,1,0,2,0,3v6.1c0,1.8,0,3.6,0,5.4c0,0.1,0.1,0.2,0.1,0.3
		c17.9,12.3,35.7,24.6,53.7,37h0.1l10.9-7.7C58.8,109,37.3,94.3,15.8,79.4z"/>
	<path id="Shape_3_" class="st0" d="M122.3,42.2c-13.4,9.3-26.6,18.5-39.9,27.7c0.2,0.2,0.3,0.4,0.4,0.5c3.4,2.4,6.8,4.8,10.1,7.1
		c0.1,0.1,0.2,0.1,0.4,0.1c9.6-6.6,19.3-13.4,29-20c0.1-0.1,0.1-0.2,0.1-0.2L122.3,42.2L122.3,42.2z"/>
	<path id="Shape_4_" class="st0" d="M122.3,79.4c-4.5,3.1-8.9,6.2-13.3,9.3c3.5,2.5,6.9,5,10.4,7.5l3-2.1V79.4z"/>
</g>
</svg>
